<?xml version="1.0" encoding="UTF-8" standalone="no" ?>
<!DOCTYPE svg PUBLIC "-//W3C//DTD SVG 1.1//EN" "http://www.w3.org/Graphics/SVG/1.1/DTD/svg11.dtd">
<svg xmlns="http://www.w3.org/2000/svg" xmlns:xlink="http://www.w3.org/1999/xlink" version="1.1" width="1280" height="1024" viewBox="0 0 1280 1024" xml:space="preserve">
  <desc>Created with Fabric.js 5.3.0</desc>
  <defs></defs>
  <g transform="matrix(1 0 0 1 640 512)" id="background-logo">
    <!-- Background made transparent -->
    <rect style="stroke: none; stroke-width: 0; fill: none;" x="-640" y="-512" rx="0" ry="0" width="1280" height="1024" />
  </g>
  <g transform="matrix(1.9211538461538462 0 0 1.9211538461538462 653.8303404701112 526.6989241641178)" id="logo-logo">
    <g paint-order="stroke">
      <g transform="matrix(0.4720272025587383 0 0 0.4720272025587383 0 0)">
        <path style="stroke: none; fill: rgb(23,82,166); fill-rule: nonzero;" transform="translate(-359.95, -360.0413907809158)" d="M 211.1 260.2 L 149.4 298 C 141.8 302.7 131.9 297.2 131.9 288.2 L 131.9 206.5 C 131.9 194.4 138.2 183.2 148.5 176.9 L 210.1 139.1 C 217.7 134.4 227.6 139.9 227.6 148.9 L 227.6 247.6 C 227.7 259.7 221.4 253.9 211.1 260.2 z M 508.9 260.2 L 570.5 298 C 578.1 302.7 588 297.2 588 288.2 L 588 206.5 C 588 194.4 581.7 183.2 571.4 176.9 L 509.8 139.1 C 502.2 134.4 492.3 139.9 492.3 148.9 L 492.3 247.6 C 492.3 259.7 498.6 253.9 508.9 260.2 z M 448.1 514.1 L 377 469.5 C 366.8 463.1 353.8 463.1 343.6 469.5 L 272.5 514.2 C 265.5 518.6 265.5 528.8 272.5 533.2 L 343.6 577.9 C 353.8 584.3 366.8 584.3 377 577.9 L 448.1 533.2 C 455.1 528.7 455.1 518.5 448.1 514.1 z" />
      </g>
      <g transform="matrix(0.4720272025587383 0 0 0.4720272025587383 0.0236 -5.4519)">
        <path style="stroke: none; fill: rgb(27,98,197); fill-rule: nonzero;" transform="translate(-360, -348.4913907809157)" d="M 247.3 277.2 L 185.7 315 C 178.1 319.7 168.2 314.2 168.2 305.2 L 168.2 223.5 C 168.2 211.4 174.5 200.2 184.8 193.9 L 246.4 156.1 C 254 151.4 263.9 156.9 263.9 165.9 L 263.9 247.6 C 263.9 259.7 257.6 270.9 247.3 277.2 z M 472.7 277.2 L 534.3 315 C 541.9 319.7 551.8 314.2 551.8 305.2 L 551.8 223.5 C 551.8 211.4 545.5 200.2 535.2 193.9 L 473.6 156.1 C 466 151.4 456.1 156.9 456.1 165.9 L 456.1 247.6 C 456.1 259.7 462.4 270.9 472.7 277.2 z M 448.1 474.1 L 377 429.4 C 366.8 423 353.8 423 343.6 429.4 L 272.5 474.1 C 265.5 478.5 265.5 488.7 272.5 493.1 L 343.6 537.8 C 353.8 544.2 366.8 544.2 377 537.8 L 448.1 493.1 C 455.1 488.7 455.1 478.5 448.1 474.1 z" />
      </g>
      <g transform="matrix(0.4720272025587383 0 0 0.4720272025587383 0.0236 -10.833)">
        <path style="stroke: none; fill: rgb(174,203,244); fill-rule: nonzero;" transform="translate(-360, -337.09139078091573)" d="M 498.9 211 L 437.3 173.2 C 429.7 168.5 419.8 174 419.8 183 L 419.8 264.7 C 419.8 265.5 419.8 266.3 419.9 267.1 L 398.5 279.4 C 394 282 388.3 282.1 383.8 279.5 C 376.9 275.4 368.9 273.1 360.3 273.1 C 351.7 273.1 343.7 275.4 336.8 279.5 C 332.3 282.2 326.7 282 322.1 279.4 L 300.1 266.7 C 300.1 266 300.2 265.4 300.2 264.7 L 300.2 183 C 300.2 174 290.4 168.5 282.7 173.2 L 221.1 211 C 210.8 217.3 204.5 228.5 204.5 240.6 L 204.5 322.3 C 204.5 331.3 214.3 336.8 222 332.1 L 283.6 294.3 C 283.9 294.1 284.2 293.9 284.5 293.7 L 306.6 306.5 C 311.2 309.2 313.9 314.1 313.9 319.4 C 313.9 336.8 323.3 351.8 337.3 359.8 C 341.8 362.4 344.7 367 344.7 372.2 L 344.7 388.9 C 344.3 389.1 344 389.3 343.6 389.5 L 272.5 434.2 C 265.5 438.6 265.5 448.8 272.5 453.2 L 343.6 497.9 C 353.8 504.3 366.8 504.3 377 497.9 L 448.1 453.2 C 455.1 448.8 455.1 438.6 448.1 434.2 L 377 389.4 C 376.6 389.2 376.3 389 375.9 388.8 L 375.9 372.1 C 375.9 366.9 378.8 362.3 383.3 359.7 C 397.3 351.7 406.7 336.7 406.7 319.4 C 406.7 314 409.4 309.1 414 306.4 L 435.8 293.8 C 436 293.9 436.2 294.1 436.4 294.2 L 498 332 C 505.6 336.7 515.5 331.2 515.5 322.2 L 515.5 240.5 C 515.5 228.5 509.3 217.3 498.9 211 z" />
      </g>
    </g>
  </g>
  <g transform="matrix(1 0 0 1 325 413.64943030496977)" id="tagline-edac9ae2-e908-4fc8-80cf-8f8a601d47f2-logo">
    <g paint-order="stroke">
      <g transform="matrix(1 0 0 1 0 0)" id="tagline-edac9ae2-e908-4fc8-80cf-8f8a601d47f2-logo-path-0">
        <path style="stroke: none; fill: rgb(27,98,197);" d="" />
      </g>
    </g>
  </g>
</svg>
